# xmcd
#
# Track frame offsets: 
#        225
#        17388
#        33166
#        46296
#
# Disc length: 796 seconds
#
# Revision: 0
# Processed by: cddbd v1.5.2PL0 Copyright (c) Steve Scherf et al.
# Submitted via: ExactAudioCopy v1.3
#
DISCID=21031904
DTITLE=Tim Russ - Only a Dream In Rio
DYEAR=1900
DGENRE=Blues
TTITLE0=Tim Russ Julie Ragins Jay Leslie - "Only a Dream in Rio"
TTITLE1=Tim Russ Julie Ragins Jay Leslie - "Imelda"
TTITLE2=Tim Russ Julie Ragins Jay Leslie - "Louisiana 1927"
TTITLE3=Tim Russ Julie Ragins Jay Leslie - "Rosalinda's Eyes"
EXTD=
EXTT0=
EXTT1=
EXTT2=
EXTT3=
PLAYORDER=
